<svg width="28" height="28" viewBox="0 0 28 28" fill="none" xmlns="http://www.w3.org/2000/svg">
<g id="instagram">
<rect id="bg" x="1.75006" y="1.75" width="24.5" height="24.5" rx="6" fill="#637083"/>
<rect id="bg_2" x="1.75006" y="1.75" width="24.5" height="24.5" rx="6" fill="#637083"/>
<rect id="bg_3" x="1.75006" y="1.75" width="24.5" height="24.5" rx="6" fill="#637083"/>
<g id="instagram_2">
<path d="M20.1251 9.1875C20.1251 9.91237 19.5374 10.5 18.8126 10.5C18.0877 10.5 17.5001 9.91237 17.5001 9.1875C17.5001 8.46263 18.0877 7.875 18.8126 7.875C19.5374 7.875 20.1251 8.46263 20.1251 9.1875Z" fill="white"/>
<path fill-rule="evenodd" clip-rule="evenodd" d="M14.0001 18.375C16.4163 18.375 18.3751 16.4162 18.3751 14C18.3751 11.5838 16.4163 9.625 14.0001 9.625C11.5838 9.625 9.62506 11.5838 9.62506 14C9.62506 16.4162 11.5838 18.375 14.0001 18.375ZM14.0001 16.625C15.4498 16.625 16.6251 15.4497 16.6251 14C16.6251 12.5503 15.4498 11.375 14.0001 11.375C12.5503 11.375 11.3751 12.5503 11.3751 14C11.3751 15.4497 12.5503 16.625 14.0001 16.625Z" fill="white"/>
<path fill-rule="evenodd" clip-rule="evenodd" d="M5.25006 13.65C5.25006 10.7097 5.25006 9.23959 5.82228 8.11655C6.32561 7.1287 7.12876 6.32555 8.11661 5.82222C9.23965 5.25 10.7098 5.25 13.6501 5.25H14.3501C17.2903 5.25 18.7605 5.25 19.8835 5.82222C20.8714 6.32555 21.6745 7.1287 22.1778 8.11655C22.7501 9.23959 22.7501 10.7097 22.7501 13.65V14.35C22.7501 17.2903 22.7501 18.7604 22.1778 19.8835C21.6745 20.8713 20.8714 21.6744 19.8835 22.1778C18.7605 22.75 17.2903 22.75 14.3501 22.75H13.6501C10.7098 22.75 9.23965 22.75 8.11661 22.1778C7.12876 21.6744 6.32561 20.8713 5.82228 19.8835C5.25006 18.7604 5.25006 17.2903 5.25006 14.35V13.65ZM13.6501 7H14.3501C15.8491 7 16.8681 7.00136 17.6557 7.06572C18.423 7.1284 18.8153 7.24202 19.089 7.38148C19.7476 7.71703 20.283 8.25247 20.6186 8.91103C20.758 9.18473 20.8717 9.57709 20.9343 10.3443C20.9987 11.132 21.0001 12.151 21.0001 13.65V14.35C21.0001 15.849 20.9987 16.868 20.9343 17.6557C20.8717 18.4229 20.758 18.8153 20.6186 19.089C20.283 19.7475 19.7476 20.283 19.089 20.6185C18.8153 20.758 18.423 20.8716 17.6557 20.9343C16.8681 20.9986 15.8491 21 14.3501 21H13.6501C12.151 21 11.132 20.9986 10.3444 20.9343C9.57715 20.8716 9.18479 20.758 8.91109 20.6185C8.25253 20.283 7.71709 19.7475 7.38154 19.089C7.24208 18.8153 7.12846 18.4229 7.06578 17.6557C7.00142 16.868 7.00006 15.849 7.00006 14.35V13.65C7.00006 12.151 7.00142 11.132 7.06578 10.3443C7.12846 9.57709 7.24208 9.18473 7.38154 8.91103C7.71709 8.25247 8.25253 7.71703 8.91109 7.38148C9.18479 7.24202 9.57715 7.1284 10.3444 7.06572C11.132 7.00136 12.151 7 13.6501 7Z" fill="white"/>
</g>
</g>
</svg>
