<svg width="28" height="28" viewBox="0 0 28 28" fill="none" xmlns="http://www.w3.org/2000/svg">
<g id="linkedin">
<rect id="bg" x="1.75006" y="1.75" width="24.5" height="24.5" rx="12.25" fill="#637083"/>
<g id="linked_in">
<path d="M11.0413 8.48063C11.0413 9.29836 10.3325 9.96126 9.45818 9.96126C8.58385 9.96126 7.87506 9.29836 7.87506 8.48063C7.87506 7.6629 8.58385 7 9.45818 7C10.3325 7 11.0413 7.6629 11.0413 8.48063Z" fill="white"/>
<path d="M8.09156 11.0496H10.7977V19.25H8.09156V11.0496Z" fill="white"/>
<path d="M15.1547 11.0496H12.4485V19.25H15.1547C15.1547 19.25 15.1547 16.6684 15.1547 15.0542C15.1547 14.0854 15.4855 13.1123 16.8055 13.1123C18.2972 13.1123 18.2882 14.3802 18.2813 15.3625C18.2722 16.6464 18.2939 17.9566 18.2939 19.25H21.0001V14.922C20.9771 12.1585 20.257 10.8851 17.8879 10.8851C16.481 10.8851 15.6089 11.5238 15.1547 12.1017V11.0496Z" fill="white"/>
</g>
</g>
</svg>
