<svg width="151" height="26" viewBox="0 0 151 26" fill="none" xmlns="http://www.w3.org/2000/svg">
<g id="Text Wrap">
<g id="Whitespace UI">
<path d="M4.4375 20.8264L0 4.82642H2.53906L5.65625 17.217H5.80469L9.04688 4.82642H11.5625L14.8047 17.2249H14.9531L18.0625 4.82642H20.6094L16.1641 20.8264H13.7344L10.3672 8.84204H10.2422L6.875 20.8264H4.4375Z" fill="#141C24"/>
<path d="M24.959 13.7014V20.8264H22.623V4.82642H24.9277V10.7795H25.0762C25.3574 10.1337 25.7871 9.62069 26.3652 9.24048C26.9434 8.86027 27.6986 8.67017 28.6309 8.67017C29.4538 8.67017 30.1725 8.83944 30.7871 9.17798C31.4069 9.51652 31.8861 10.0217 32.2246 10.6936C32.5684 11.3603 32.7402 12.1936 32.7402 13.1936V20.8264H30.4043V13.4749C30.4043 12.5946 30.1777 11.9124 29.7246 11.428C29.2715 10.9384 28.6413 10.6936 27.834 10.6936C27.2819 10.6936 26.7871 10.8108 26.3496 11.0452C25.9173 11.2795 25.5762 11.6233 25.3262 12.0764C25.0814 12.5243 24.959 13.066 24.959 13.7014Z" fill="#141C24"/>
<path d="M35.8574 20.8264V8.82642H38.1934V20.8264H35.8574ZM37.0371 6.97485C36.6309 6.97485 36.2819 6.83944 35.9902 6.5686C35.7038 6.29256 35.5605 5.96444 35.5605 5.58423C35.5605 5.19881 35.7038 4.87069 35.9902 4.59985C36.2819 4.32381 36.6309 4.18579 37.0371 4.18579C37.4434 4.18579 37.7897 4.32381 38.0762 4.59985C38.3678 4.87069 38.5137 5.19881 38.5137 5.58423C38.5137 5.96444 38.3678 6.29256 38.0762 6.5686C37.7897 6.83944 37.4434 6.97485 37.0371 6.97485Z" fill="#141C24"/>
<path d="M46.9375 8.82642V10.7014H40.3828V8.82642H46.9375ZM42.1406 5.95142H44.4766V17.303C44.4766 17.7561 44.5443 18.0972 44.6797 18.3264C44.8151 18.5504 44.9896 18.704 45.2031 18.7874C45.4219 18.8655 45.6589 18.9045 45.9141 18.9045C46.1016 18.9045 46.2656 18.8915 46.4062 18.8655C46.5469 18.8394 46.6562 18.8186 46.7344 18.803L47.1562 20.7327C47.0208 20.7847 46.8281 20.8368 46.5781 20.8889C46.3281 20.9462 46.0156 20.9775 45.6406 20.9827C45.026 20.9931 44.4531 20.8837 43.9219 20.6545C43.3906 20.4254 42.9609 20.0712 42.6328 19.592C42.3047 19.1129 42.1406 18.5113 42.1406 17.7874V5.95142Z" fill="#141C24"/>
<path d="M54.5645 21.0686C53.3822 21.0686 52.3639 20.816 51.5098 20.3108C50.6608 19.8004 50.0046 19.0842 49.541 18.1624C49.0827 17.2353 48.8535 16.1493 48.8535 14.9045C48.8535 13.6754 49.0827 12.592 49.541 11.6545C50.0046 10.717 50.6504 9.98527 51.4785 9.45923C52.3118 8.93319 53.2858 8.67017 54.4004 8.67017C55.0775 8.67017 55.7337 8.78215 56.3691 9.0061C57.0046 9.23006 57.5749 9.58162 58.0801 10.0608C58.5853 10.54 58.9837 11.1624 59.2754 11.928C59.5671 12.6884 59.7129 13.6129 59.7129 14.7014V15.5295H50.1738V13.7795H57.4238C57.4238 13.165 57.2988 12.6207 57.0488 12.1467C56.7988 11.6676 56.4473 11.29 55.9941 11.0139C55.5462 10.7379 55.0202 10.5999 54.416 10.5999C53.7598 10.5999 53.1868 10.7613 52.6973 11.0842C52.2129 11.4019 51.8379 11.8186 51.5723 12.3342C51.3118 12.8446 51.1816 13.3993 51.1816 13.9983V15.3655C51.1816 16.1676 51.3223 16.8499 51.6035 17.4124C51.89 17.9749 52.2884 18.4045 52.7988 18.7014C53.3092 18.9931 53.9056 19.1389 54.5879 19.1389C55.0306 19.1389 55.4342 19.0764 55.7988 18.9514C56.1634 18.8212 56.4785 18.6285 56.7441 18.3733C57.0098 18.1181 57.2129 17.803 57.3535 17.428L59.5645 17.8264C59.3874 18.4775 59.0697 19.0478 58.6113 19.5374C58.1582 20.0217 57.5879 20.3993 56.9004 20.6702C56.2181 20.9358 55.4395 21.0686 54.5645 21.0686Z" fill="#141C24"/>
<path d="M71.2969 11.7561L69.1797 12.1311C69.0911 11.8603 68.9505 11.6025 68.7578 11.3577C68.5703 11.1129 68.3151 10.9124 67.9922 10.7561C67.6693 10.5999 67.2656 10.5217 66.7812 10.5217C66.1198 10.5217 65.5677 10.6702 65.125 10.967C64.6823 11.2587 64.4609 11.6363 64.4609 12.0999C64.4609 12.5009 64.6094 12.8238 64.9062 13.0686C65.2031 13.3134 65.6823 13.5139 66.3438 13.6702L68.25 14.1077C69.3542 14.3629 70.1771 14.7561 70.7188 15.2874C71.2604 15.8186 71.5312 16.5087 71.5312 17.3577C71.5312 18.0764 71.3229 18.717 70.9062 19.2795C70.4948 19.8368 69.9193 20.2743 69.1797 20.592C68.4453 20.9097 67.5938 21.0686 66.625 21.0686C65.2813 21.0686 64.1849 20.7821 63.3359 20.2092C62.487 19.6311 61.9661 18.8108 61.7734 17.7483L64.0312 17.4045C64.1719 17.9931 64.4609 18.4384 64.8984 18.7405C65.3359 19.0374 65.9062 19.1858 66.6094 19.1858C67.375 19.1858 67.987 19.0269 68.4453 18.7092C68.9036 18.3863 69.1328 17.9931 69.1328 17.5295C69.1328 17.1545 68.9922 16.8394 68.7109 16.5842C68.4349 16.329 68.0104 16.1363 67.4375 16.0061L65.4062 15.5608C64.2865 15.3056 63.4583 14.8993 62.9219 14.342C62.3906 13.7847 62.125 13.079 62.125 12.2249C62.125 11.5165 62.3229 10.8967 62.7188 10.3655C63.1146 9.83423 63.6615 9.42017 64.3594 9.12329C65.0573 8.82121 65.8568 8.67017 66.7578 8.67017C68.0547 8.67017 69.0755 8.95142 69.8203 9.51392C70.5651 10.0712 71.0573 10.8186 71.2969 11.7561Z" fill="#141C24"/>
<path d="M74.0996 25.3264V8.82642H76.3809V10.7717H76.5762C76.7116 10.5217 76.9069 10.2327 77.1621 9.90454C77.4173 9.57642 77.7715 9.28996 78.2246 9.04517C78.6777 8.79517 79.2767 8.67017 80.0215 8.67017C80.9902 8.67017 81.8548 8.91496 82.6152 9.40454C83.3757 9.89412 83.972 10.5999 84.4043 11.5217C84.8418 12.4436 85.0605 13.553 85.0605 14.8499C85.0605 16.1467 84.8444 17.2587 84.4121 18.1858C83.9798 19.1077 83.3861 19.8186 82.6309 20.3186C81.8757 20.8134 81.0137 21.0608 80.0449 21.0608C79.3158 21.0608 78.7194 20.9384 78.2559 20.6936C77.7975 20.4488 77.4382 20.1624 77.1777 19.8342C76.9173 19.5061 76.7168 19.2144 76.5762 18.9592H76.4355V25.3264H74.0996ZM76.3887 14.8264C76.3887 15.6702 76.5111 16.4097 76.7559 17.0452C77.0007 17.6806 77.3548 18.178 77.8184 18.5374C78.2819 18.8915 78.8496 19.0686 79.5215 19.0686C80.2194 19.0686 80.8027 18.8837 81.2715 18.5139C81.7402 18.1389 82.0944 17.6311 82.334 16.9905C82.5788 16.3499 82.7012 15.6285 82.7012 14.8264C82.7012 14.0347 82.5814 13.3238 82.3418 12.6936C82.1074 12.0634 81.7533 11.566 81.2793 11.2014C80.8105 10.8368 80.2246 10.6545 79.5215 10.6545C78.8444 10.6545 78.2715 10.829 77.8027 11.178C77.3392 11.5269 76.9876 12.0139 76.748 12.6389C76.5085 13.2639 76.3887 13.9931 76.3887 14.8264Z" fill="#141C24"/>
<path d="M91.1699 21.092C90.4095 21.092 89.722 20.9514 89.1074 20.6702C88.4928 20.3837 88.0059 19.9696 87.6465 19.428C87.2923 18.8863 87.1152 18.2222 87.1152 17.4358C87.1152 16.7587 87.2454 16.2014 87.5059 15.7639C87.7663 15.3264 88.1178 14.9801 88.5605 14.7249C89.0033 14.4696 89.498 14.2769 90.0449 14.1467C90.5918 14.0165 91.1491 13.9176 91.7168 13.8499C92.4355 13.7665 93.0189 13.6988 93.4668 13.6467C93.9147 13.5894 94.2402 13.4983 94.4434 13.3733C94.6465 13.2483 94.748 13.0452 94.748 12.7639V12.7092C94.748 12.0269 94.5553 11.4983 94.1699 11.1233C93.7897 10.7483 93.222 10.5608 92.4668 10.5608C91.6803 10.5608 91.0605 10.7353 90.6074 11.0842C90.1595 11.428 89.8496 11.8108 89.6777 12.2327L87.4824 11.7327C87.7428 11.0035 88.123 10.415 88.623 9.96704C89.1283 9.51392 89.709 9.18579 90.3652 8.98267C91.0215 8.77433 91.7116 8.67017 92.4355 8.67017C92.9147 8.67017 93.4225 8.72746 93.959 8.84204C94.5007 8.95142 95.0059 9.15454 95.4746 9.45142C95.9486 9.74829 96.3366 10.1728 96.6387 10.7249C96.9408 11.2717 97.0918 11.9827 97.0918 12.8577V20.8264H94.8105V19.1858H94.7168C94.5658 19.4879 94.3392 19.7847 94.0371 20.0764C93.735 20.3681 93.347 20.6103 92.873 20.803C92.3991 20.9957 91.8314 21.092 91.1699 21.092ZM91.6777 19.217C92.3236 19.217 92.8757 19.0894 93.334 18.8342C93.7975 18.579 94.1491 18.2457 94.3887 17.8342C94.6335 17.4176 94.7559 16.9722 94.7559 16.4983V14.9514C94.6725 15.0347 94.5111 15.1129 94.2715 15.1858C94.0371 15.2535 93.7689 15.3134 93.4668 15.3655C93.1647 15.4124 92.8704 15.4566 92.584 15.4983C92.2975 15.5347 92.0579 15.566 91.8652 15.592C91.4121 15.6493 90.998 15.7457 90.623 15.8811C90.2533 16.0165 89.9564 16.2118 89.7324 16.467C89.5137 16.717 89.4043 17.0504 89.4043 17.467C89.4043 18.0452 89.6178 18.4827 90.0449 18.7795C90.472 19.0712 91.0163 19.217 91.6777 19.217Z" fill="#141C24"/>
<path d="M105.258 21.0686C104.096 21.0686 103.096 20.8056 102.258 20.2795C101.424 19.7483 100.784 19.0165 100.336 18.0842C99.888 17.1519 99.6641 16.0842 99.6641 14.8811C99.6641 13.6624 99.8932 12.5868 100.352 11.6545C100.81 10.717 101.456 9.98527 102.289 9.45923C103.122 8.93319 104.104 8.67017 105.234 8.67017C106.146 8.67017 106.958 8.83944 107.672 9.17798C108.385 9.51131 108.961 9.98006 109.398 10.5842C109.841 11.1884 110.104 11.8941 110.188 12.7014H107.914C107.789 12.1389 107.503 11.6545 107.055 11.2483C106.612 10.842 106.018 10.6389 105.273 10.6389C104.622 10.6389 104.052 10.8108 103.562 11.1545C103.078 11.4931 102.701 11.9775 102.43 12.6077C102.159 13.2327 102.023 13.9722 102.023 14.8264C102.023 15.7014 102.156 16.4566 102.422 17.092C102.688 17.7275 103.063 18.2196 103.547 18.5686C104.036 18.9176 104.612 19.092 105.273 19.092C105.716 19.092 106.117 19.0113 106.477 18.8499C106.841 18.6832 107.146 18.4462 107.391 18.1389C107.641 17.8316 107.815 17.4618 107.914 17.0295H110.188C110.104 17.8056 109.852 18.4983 109.43 19.1077C109.008 19.717 108.443 20.1962 107.734 20.5452C107.031 20.8941 106.206 21.0686 105.258 21.0686Z" fill="#141C24"/>
<path d="M117.857 21.0686C116.675 21.0686 115.657 20.816 114.803 20.3108C113.954 19.8004 113.298 19.0842 112.834 18.1624C112.376 17.2353 112.146 16.1493 112.146 14.9045C112.146 13.6754 112.376 12.592 112.834 11.6545C113.298 10.717 113.943 9.98527 114.771 9.45923C115.605 8.93319 116.579 8.67017 117.693 8.67017C118.37 8.67017 119.027 8.78215 119.662 9.0061C120.298 9.23006 120.868 9.58162 121.373 10.0608C121.878 10.54 122.277 11.1624 122.568 11.928C122.86 12.6884 123.006 13.6129 123.006 14.7014V15.5295H113.467V13.7795H120.717C120.717 13.165 120.592 12.6207 120.342 12.1467C120.092 11.6676 119.74 11.29 119.287 11.0139C118.839 10.7379 118.313 10.5999 117.709 10.5999C117.053 10.5999 116.48 10.7613 115.99 11.0842C115.506 11.4019 115.131 11.8186 114.865 12.3342C114.605 12.8446 114.475 13.3993 114.475 13.9983V15.3655C114.475 16.1676 114.615 16.8499 114.896 17.4124C115.183 17.9749 115.581 18.4045 116.092 18.7014C116.602 18.9931 117.199 19.1389 117.881 19.1389C118.324 19.1389 118.727 19.0764 119.092 18.9514C119.456 18.8212 119.771 18.6285 120.037 18.3733C120.303 18.1181 120.506 17.803 120.646 17.428L122.857 17.8264C122.68 18.4775 122.363 19.0478 121.904 19.5374C121.451 20.0217 120.881 20.3993 120.193 20.6702C119.511 20.9358 118.732 21.0686 117.857 21.0686Z" fill="#141C24"/>
<path d="M141.896 4.82642H144.318V15.3499C144.318 16.4696 144.055 17.4618 143.529 18.3264C143.003 19.1858 142.264 19.8629 141.311 20.3577C140.357 20.8472 139.24 21.092 137.959 21.092C136.683 21.092 135.568 20.8472 134.615 20.3577C133.662 19.8629 132.923 19.1858 132.396 18.3264C131.87 17.4618 131.607 16.4696 131.607 15.3499V4.82642H134.021V15.1545C134.021 15.8785 134.18 16.5217 134.498 17.0842C134.821 17.6467 135.277 18.0894 135.865 18.4124C136.454 18.7301 137.152 18.8889 137.959 18.8889C138.771 18.8889 139.472 18.7301 140.061 18.4124C140.654 18.0894 141.107 17.6467 141.42 17.0842C141.738 16.5217 141.896 15.8785 141.896 15.1545V4.82642Z" fill="#141C24"/>
<path d="M150.242 4.82642V20.8264H147.828V4.82642H150.242Z" fill="#141C24"/>
</g>
</g>
</svg>
