<svg width="28" height="28" viewBox="0 0 28 28" fill="none" xmlns="http://www.w3.org/2000/svg">
<g id="twitter">
<path id="twitter_2" d="M10.3152 24.5C7.48459 24.5 4.84596 23.6767 2.62506 22.2562C4.51068 22.3782 7.83837 22.086 9.90819 20.1117C6.7945 19.9688 5.39029 17.5808 5.20713 16.5602C5.47169 16.6623 6.73345 16.7847 7.44573 16.499C3.86397 15.6009 3.3145 12.4577 3.4366 11.4984C4.10818 11.9678 5.24783 12.1311 5.69555 12.0903C2.358 9.70221 3.55871 6.10991 4.14888 5.33431C6.54403 8.65258 10.1336 10.5162 14.5744 10.6199C14.4907 10.2527 14.4464 9.87037 14.4464 9.47769C14.4464 6.65955 16.7243 4.375 19.5342 4.375C21.0023 4.375 22.3252 4.99866 23.2538 5.99623C24.2349 5.76634 25.7113 5.22818 26.4331 4.7628C26.0693 6.06909 24.9366 7.1588 24.2515 7.56269C24.2459 7.54889 24.2572 7.57643 24.2515 7.56269C24.8533 7.47166 26.4817 7.1587 27.1251 6.72224C26.8069 7.45609 25.6061 8.67626 24.6206 9.35937C24.8039 17.4458 18.617 24.5 10.3152 24.5Z" fill="#637083"/>
</g>
</svg>
